REM DIRINDEX 1\2,1\3,1\4,1\5
REM DIRNAME "folder01","folder02","folder03","folder04","folder05"
TITLE ""
FILE "P1Q_t_0010-0019.mp3" MP3
  TRACK 01 AUDIO
    TITLE "0:"
    INDEX 01 00:00:00
  TRACK 02 AUDIO
    TITLE "3:cjc173_0937"
    INDEX 01 00:00:08
  TRACK 03 AUDIO
    TITLE "0:"
    INDEX 01 00:01:25
  TRACK 04 AUDIO
    TITLE "4:cjc173_0938"
    INDEX 01 00:01:45
  TRACK 05 AUDIO
    TITLE "0:"
    INDEX 01 00:04:51
  TRACK 06 AUDIO
    TITLE "5:cjc173_0939"
    INDEX 01 00:04:71
  TRACK 07 AUDIO
    TITLE "0:"
    INDEX 01 00:09:56
  TRACK 08 AUDIO
    TITLE "3:cjc173_0940"
    INDEX 01 00:10:26
  TRACK 09 AUDIO
    TITLE "0:"
    INDEX 01 00:11:39
  TRACK 10 AUDIO
    TITLE "4:cjc173_0941"
    INDEX 01 00:11:59
  TRACK 11 AUDIO
    TITLE "0:"
    INDEX 01 00:14:71
  TRACK 12 AUDIO
    TITLE "5:cjc173_0942"
    INDEX 01 00:15:16
  TRACK 13 AUDIO
    TITLE "0:"
    INDEX 01 00:19:61
  TRACK 14 AUDIO
    TITLE "3:cjc173_0943"
    INDEX 01 00:20:33
  TRACK 15 AUDIO
    TITLE "0:"
    INDEX 01 00:21:52
  TRACK 16 AUDIO
    TITLE "4:cjc173_0944"
    INDEX 01 00:21:73
  TRACK 17 AUDIO
    TITLE "0:"
    INDEX 01 00:23:25
  TRACK 18 AUDIO
    TITLE "5:cjc173_0945"
    INDEX 01 00:23:45
  TRACK 19 AUDIO
    TITLE "0:"
    INDEX 01 00:27:56
  TRACK 20 AUDIO
    TITLE "3:cjc173_0946"
    INDEX 01 00:28:28
  TRACK 21 AUDIO
    TITLE "0:"
    INDEX 01 00:29:39
  TRACK 22 AUDIO
    TITLE "4:cjc173_0947"
    INDEX 01 00:29:63
  TRACK 23 AUDIO
    TITLE "0:"
    INDEX 01 00:31:56
  TRACK 24 AUDIO
    TITLE "5:cjc173_0948"
    INDEX 01 00:32:01
  TRACK 25 AUDIO
    TITLE "0:"
    INDEX 01 00:37:41
  TRACK 26 AUDIO
    TITLE "3:cjc173_0949"
    INDEX 01 00:38:11
  TRACK 27 AUDIO
    TITLE "0:"
    INDEX 01 00:39:38
  TRACK 28 AUDIO
    TITLE "4:cjc173_0950"
    INDEX 01 00:39:61
  TRACK 29 AUDIO
    TITLE "0:"
    INDEX 01 00:42:19
  TRACK 30 AUDIO
    TITLE "5:cjc173_0951"
    INDEX 01 00:42:36
  TRACK 31 AUDIO
    TITLE "0:"
    INDEX 01 00:47:27
  TRACK 32 AUDIO
    TITLE "3:cjc173_0952"
    INDEX 01 00:47:73
  TRACK 33 AUDIO
    TITLE "0:"
    INDEX 01 00:49:19
  TRACK 34 AUDIO
    TITLE "4:cjc173_0953"
    INDEX 01 00:49:42
  TRACK 35 AUDIO
    TITLE "0:"
    INDEX 01 00:52:74
  TRACK 36 AUDIO
    TITLE "5:cjc173_0954"
    INDEX 01 00:53:18
  TRACK 37 AUDIO
    TITLE "0:"
    INDEX 01 00:58:29
  TRACK 38 AUDIO
    TITLE "3:cjc173_0955"
    INDEX 01 00:58:74
  TRACK 39 AUDIO
    TITLE "0:"
    INDEX 01 01:00:20
  TRACK 40 AUDIO
    TITLE "4:cjc173_0956"
    INDEX 01 01:00:40
  TRACK 41 AUDIO
    TITLE "0:"
    INDEX 01 01:03:48
  TRACK 42 AUDIO
    TITLE "5:cjc173_0957"
    INDEX 01 01:03:68
  TRACK 43 AUDIO
    TITLE "0:"
    INDEX 01 01:09:15
  TRACK 44 AUDIO
    TITLE "3:cjc173_0958"
    INDEX 01 01:09:62
  TRACK 45 AUDIO
    TITLE "0:"
    INDEX 01 01:11:01
  TRACK 46 AUDIO
    TITLE "4:cjc173_0959"
    INDEX 01 01:11:22
  TRACK 47 AUDIO
    TITLE "0:"
    INDEX 01 01:12:72
  TRACK 48 AUDIO
    TITLE "5:cjc173_0960"
    INDEX 01 01:13:19
  TRACK 49 AUDIO
    TITLE "0:"
    INDEX 01 01:17:05
  TRACK 50 AUDIO
    TITLE "3:cjc173_0961"
    INDEX 01 01:17:52
  TRACK 51 AUDIO
    TITLE "0:"
    INDEX 01 01:18:71
  TRACK 52 AUDIO
    TITLE "4:cjc173_0962"
    INDEX 01 01:19:18
  TRACK 53 AUDIO
    TITLE "0:"
    INDEX 01 01:23:49
  TRACK 54 AUDIO
    TITLE "5:cjc173_0963"
    INDEX 01 01:23:70
  TRACK 55 AUDIO
    TITLE "0:"
    INDEX 01 01:28:07
  TRACK 56 AUDIO
    TITLE "3:cjc173_0964"
    INDEX 01 01:28:52
  TRACK 57 AUDIO
    TITLE "0:"
    INDEX 01 01:30:06
  TRACK 58 AUDIO
    TITLE "4:cjc173_0965"
    INDEX 01 01:30:27
  TRACK 59 AUDIO
    TITLE "0:"
    INDEX 01 01:31:74
  TRACK 60 AUDIO
    TITLE "5:cjc173_0966"
    INDEX 01 01:32:18
  TRACK 61 AUDIO
    TITLE "0:"
    INDEX 01 01:36:69
